<svg width="16" height="16"  version="1.0" xmlns="http://www.w3.org/2000/svg"
 viewBox="0 0 880.000000 919.000000"
 preserveAspectRatio="xMidYMid meet">
<g transform="translate(0.000000,919.000000) scale(0.100000,-0.100000)"
fill="#000000" stroke="none">
<path d="M4370 8787 c-3 -3 -56 -20 -118 -36 -103 -29 -254 -102 -1940 -945
-1600 -800 -1833 -919 -1865 -955 l-37 -41 0 -2018 0 -2019 38 -37 c52 -53
3638 -1848 3786 -1895 149 -48 162 -48 310 -6 122 34 213 78 1948 946 1579
789 1825 916 1864 954 l44 44 0 2016 0 2015 -37 41 c-33 36 -260 152 -1863
953 -1861 930 -1948 971 -2079 984 -25 2 -48 1 -51 -1z m1538 -1234 c807 -405
1469 -738 1471 -740 16 -13 -95 -75 -548 -304 -465 -236 -521 -262 -566 -262
-47 -1 -150 49 -1529 736 -878 438 -1476 741 -1470 746 5 5 254 133 554 285
425 215 553 276 583 276 30 0 327 -145 1505 -737z m-1659 -847 c817 -394 1489
-720 1494 -725 15 -15 -7 -36 -61 -62 -26 -12 -310 -150 -632 -307 -467 -227
-595 -286 -635 -289 -48 -5 -62 1 -435 187 -212 106 -878 438 -1480 737
l-1095 545 240 119 c991 492 1049 520 1085 515 19 -2 703 -326 1519 -720z
m-1697 -982 c1352 -676 1570 -788 1583 -813 13 -26 15 -234 15 -1731 1 -1278
-2 -1706 -11 -1716 -6 -8 -18 -14 -25 -14 -28 0 -3149 1568 -3174 1595 l-25
27 -3 1710 c-1 1254 1 1714 9 1724 7 9 21 11 38 7 14 -3 731 -359 1593 -789z
m5343 774 c3 -13 4 -787 3 -1720 -3 -1685 -3 -1697 -23 -1725 -16 -21 -383
-210 -1594 -816 -937 -469 -1582 -787 -1595 -785 l-21 3 -7 1675 c-4 921 -5
1694 -2 1717 3 25 16 56 31 74 21 24 390 212 1597 814 864 431 1579 784 1588
784 10 1 20 -8 23 -21z"/>
</g>
</svg>
