<svg  viewBox="0 0 48 48" fill="none" xmlns="http://www.w3.org/2000/svg">
<path d="M5 33H26.352C26.1383 32.6225 25.9987 32.3719 25.9692 32.31C25.3278 30.9639 24.9966 29.4911 25 28C25.0014 26.4505 25.3636 24.9226 26.0579 23.5373C26.7521 22.1521 27.7595 20.9475 29 20.019V16L31 14L18.345 4.45071C17.9576 4.15821 17.4854 3.99997 17 3.99997C16.5146 3.99997 16.0424 4.15821 15.655 4.45071L3 14L5 16V33ZM9 16H15V22H9V16ZM35 20C32.8784 20.0004 30.8438 20.8434 29.3436 22.3436C27.8434 23.8438 27.0004 25.8784 27 28C26.9966 29.1943 27.2617 30.374 27.7757 31.452C27.9554 31.8292 35 44 35 44C35 44 42.0447 31.8291 42.2243 31.4519C42.7382 30.3739 43.0033 29.1942 43 28C42.9995 25.8784 42.1566 23.8438 40.6564 22.3437C39.1562 20.8435 37.1216 20.0005 35 20ZM35 31.25C34.3572 31.25 33.7289 31.0594 33.1944 30.7023C32.6599 30.3452 32.2434 29.8376 31.9974 29.2437C31.7514 28.6499 31.687 27.9964 31.8124 27.366C31.9379 26.7355 32.2474 26.1564 32.7019 25.7019C33.1564 25.2474 33.7355 24.9379 34.366 24.8125C34.9964 24.6871 35.6499 24.7514 36.2437 24.9974C36.8376 25.2434 37.3452 25.6599 37.7023 26.1944C38.0594 26.7289 38.25 27.3572 38.25 28C38.25 28.862 37.9076 29.6886 37.2981 30.2981C36.6886 30.9076 35.862 31.25 35 31.25Z" fill="black"/>
</svg>
